PathFileType   4   (X/Y/Z)
DataRate  CameraRate  NumFrames  NumMarkers  Units  OrigDataRate  OrigDataStartFrame  OrigNumFrames  
  120.0      120.0        11         37         mm      120.0          19        151
Frame#      Time                    midhip                           hip_r                           hip_l                          knee_r                          knee_l                         ankle_r                         ankle_l                         midasis                          asis_r                          asis_l                          psis_r                          psis_l                    epicondLat_r                    epicondLat_l                    epicondMed_r                    epicondMed_l                  malleolusLat_r                  malleolusLat_l                 malleolusMedv_r                 malleolusMedv_l                    sternalnotch                  xyphoidprocess                            neck                           toe_r                           toe_l                     thighwand_r                     thighwand_l                     upperleg1_r                     upperleg1_l                     upperleg2_r                     upperleg2_l                     shankwand_r                     shankwand_l                     lowerleg1_r                     lowerleg1_l                   subclavicle_r                   subclavicle_l            
              X1          Y1          Z1          X2          Y2          Z2          X3          Y3          Z3          X4          Y4          Z4          X5          Y5          Z5          X6          Y6          Z6          X7          Y7          Z7          X8          Y8          Z8          X9          Y9          Z9          X10          Y10          Z10          X11          Y11          Z11          X12          Y12          Z12          X13          Y13          Z13          X14          Y14          Z14          X15          Y15          Z15          X16          Y16          Z16          X17          Y17          Z17          X18          Y18          Z18          X19          Y19          Z19          X20          Y20          Z20          X21          Y21          Z21          X22          Y22          Z22          X23          Y23          Z23          X24          Y24          Z24          X25          Y25          Z25          X26          Y26          Z26          X27          Y27          Z27          X28          Y28          Z28          X29          Y29          Z29          X30          Y30          Z30          X31          Y31          Z31          X32          Y32          Z32          X33          Y33          Z33          X34          Y34          Z34          X35          Y35          Z35          X36          Y36          Z36          X37          Y37          Z37          

	19	0.33333	-2003.479	769.103	243.309	-2021.101	765.080	297.818	-1985.857	773.126	188.800	-2004.944	408.531	331.016	-2019.295	429.535	199.950	-2232.618	150.904	310.752	-2055.027	66.092	206.849	-1973.043	842.190	257.933	-1992.400	840.927	367.430	-1953.687	843.452	148.435	-2152.967	866.867	254.829	-2143.886	866.330	207.149	-2001.195	415.881	390.359	-1998.226	414.681	140.723	-1972.979	408.900	265.815	-2021.760	424.705	257.612	-2245.572	159.685	344.831	-2060.750	65.837	170.801	-2225.866	141.630	278.954	-2060.604	68.224	240.113	-1985.287	1195.932	235.380	-1973.013	1094.554	231.615	-2095.843	1263.615	223.475	-2182.794	91.485	344.494	-1965.536	44.937	204.600	-1887.173	569.567	373.421	-1890.376	567.356	136.347	-1955.308	599.395	397.175	-1921.260	613.521	196.525	-1953.936	542.153	392.767	-1932.586	556.754	205.160	-2072.823	166.078	375.704	-2046.030	164.174	77.831	-2133.734	201.833	336.673	-2049.407	158.563	157.899	-1993.107	1194.331	292.118	-1973.057	1198.022	185.759
	20	0.34167	-1998.383	769.155	243.158	-2015.971	765.319	297.691	-1980.794	772.991	188.624	-1990.028	407.955	330.651	-2015.987	428.698	199.749	-2218.767	147.637	310.910	-2054.773	66.199	206.851	-1968.019	842.340	257.488	-1987.280	841.444	366.999	-1948.757	843.235	147.976	-2148.223	866.817	254.805	-2138.851	866.235	206.987	-1991.067	416.351	390.019	-1995.581	414.386	140.569	-1958.576	410.044	264.423	-2018.580	423.426	256.681	-2231.583	156.033	345.138	-2060.504	65.976	170.804	-2212.297	137.418	279.324	-2060.603	68.069	240.145	-1980.406	1196.120	235.165	-1968.046	1094.743	231.656	-2090.817	1263.657	222.412	-2166.160	90.598	344.707	-1965.571	44.919	204.709	-1879.277	571.322	372.529	-1886.829	566.524	135.653	-1947.942	600.678	396.787	-1918.052	612.395	196.316	-1944.243	542.973	392.001	-1929.354	555.711	204.746	-2058.403	165.454	374.665	-2045.051	164.181	77.831	-2120.842	199.978	335.363	-2048.749	158.320	158.148	-1988.432	1194.631	291.873	-1967.996	1198.115	185.589
	21	0.35000	-1993.455	769.193	243.047	-2010.998	765.549	297.608	-1975.912	772.837	188.486	-1980.170	407.835	330.365	-2012.218	428.858	199.649	-2204.527	144.106	311.195	-2054.500	66.307	206.866	-1963.060	842.442	257.063	-1982.191	841.910	366.602	-1943.928	842.974	147.524	-2143.537	866.839	254.815	-2133.862	866.135	206.872	-1981.140	416.884	389.729	-1993.104	414.108	140.459	-1949.073	409.018	266.118	-2014.206	421.563	254.449	-2217.245	152.139	345.546	-2060.257	66.119	170.823	-2198.337	134.045	279.537	-2060.417	67.941	240.186	-1975.162	1196.348	234.838	-1962.592	1094.994	231.432	-2085.779	1263.704	221.853	-2149.213	89.512	345.117	-1965.632	44.946	204.857	-1871.535	573.213	371.615	-1883.380	565.647	134.896	-1939.892	601.875	395.527	-1914.439	611.564	196.443	-1935.596	543.895	391.587	-1925.520	554.920	204.073	-2043.815	164.942	373.867	-2044.164	164.206	77.850	-2107.979	198.247	335.052	-2047.978	158.146	158.395	-1983.330	1194.886	291.298	-1962.634	1198.330	185.523
	22	0.35833	-1988.647	769.219	242.954	-2006.105	765.760	297.554	-1971.189	772.677	188.353	-1973.243	407.898	330.124	-2006.755	428.747	199.632	-2189.859	140.295	311.625	-2054.210	66.414	206.904	-1958.152	842.496	256.653	-1977.110	842.311	366.220	-1939.194	842.681	147.086	-2138.885	866.927	254.859	-2128.912	866.023	206.803	-1971.416	417.483	389.468	-1990.773	413.853	140.406	-1942.647	407.533	268.899	-2007.073	418.859	252.020	-2202.544	148.015	346.060	-2060.008	66.266	170.867	-2183.626	130.959	279.786	-2059.952	68.030	240.232	-1969.710	1196.387	234.566	-1956.938	1095.059	231.120	-2080.974	1263.775	221.907	-2132.043	88.249	345.742	-1965.694	44.993	205.029	-1863.938	575.237	370.674	-1880.009	564.754	134.093	-1932.516	602.940	394.577	-1910.582	611.252	196.481	-1928.262	544.611	391.694	-1920.790	554.367	203.172	-2029.133	164.585	373.399	-2043.352	164.242	77.884	-2094.383	196.484	335.497	-2046.983	158.174	158.469	-1977.875	1194.888	290.751	-1957.193	1198.410	185.531
	23	0.36667	-1983.902	769.213	242.854	-2001.242	765.927	297.502	-1966.561	772.498	188.206	-1966.923	408.562	329.901	-2002.134	427.004	199.650	-2174.759	136.220	312.207	-2053.914	66.524	206.972	-1953.279	842.505	256.246	-1972.016	842.640	365.836	-1934.541	842.369	146.655	-2134.243	867.060	254.944	-2123.993	865.881	206.782	-1961.877	418.142	389.213	-1988.554	413.625	140.410	-1936.911	406.855	271.312	-2000.768	417.648	253.084	-2187.490	143.685	346.681	-2059.760	66.418	170.944	-2168.414	127.449	280.258	-2059.446	68.254	240.301	-1964.480	1196.274	234.276	-1951.679	1094.959	230.584	-2075.988	1263.806	221.656	-2114.743	86.841	346.582	-1965.738	45.035	205.199	-1856.495	577.359	369.710	-1876.707	563.876	133.269	-1925.332	604.257	393.848	-1906.949	610.988	195.718	-1921.242	545.702	391.839	-1916.520	553.731	202.775	-2014.393	164.399	373.307	-2042.594	164.279	77.930	-2080.503	194.487	336.199	-2045.994	158.308	158.454	-1972.645	1194.638	290.333	-1951.966	1198.418	185.373
	24	0.37500	-1979.182	769.166	242.716	-1996.389	766.034	297.416	-1961.976	772.299	188.017	-1962.773	410.532	329.649	-2000.144	426.082	199.699	-2159.262	131.935	312.932	-2053.626	66.641	207.075	-1948.421	842.476	255.829	-1966.893	842.906	365.443	-1929.950	842.046	146.216	-2129.590	867.205	255.080	-2119.099	865.689	206.816	-1952.500	418.848	388.945	-1986.418	413.419	140.457	-1933.114	407.893	271.415	-1997.573	418.614	255.439	-2172.116	139.201	347.403	-2059.520	66.577	171.054	-2152.637	123.177	281.000	-2059.004	68.522	240.396	-1959.426	1196.226	234.013	-1946.737	1094.898	230.292	-2070.679	1263.825	221.114	-2097.363	85.329	347.601	-1965.753	45.051	205.351	-1849.205	579.517	368.739	-1873.478	563.029	132.446	-1917.341	605.785	392.981	-1902.915	610.475	194.575	-1914.336	546.798	391.219	-1912.828	553.381	202.504	-1999.601	164.368	373.591	-2041.872	164.308	77.984	-2066.215	192.926	336.284	-2045.083	158.571	158.491	-1967.809	1194.556	290.183	-1946.717	1198.395	185.012
	25	0.38333	-1974.458	769.095	242.514	-1991.511	766.090	297.269	-1957.406	772.099	187.759	-1955.418	412.123	329.287	-1996.777	425.779	199.798	-2143.417	127.513	313.778	-2053.355	66.767	207.210	-1943.570	842.418	255.399	-1961.745	843.119	365.039	-1925.396	841.717	145.760	-2124.917	867.337	255.276	-2114.231	865.436	206.917	-1943.266	419.586	388.660	-1984.342	413.228	140.529	-1925.929	410.651	268.232	-1993.051	417.853	254.848	-2156.463	134.625	348.208	-2059.292	66.744	171.196	-2136.488	118.414	281.957	-2058.524	68.731	240.522	-1954.363	1196.131	233.929	-1941.682	1094.787	230.624	-2065.591	1263.695	220.560	-2079.902	83.760	348.732	-1965.741	45.036	205.471	-1842.054	581.638	367.783	-1870.331	562.214	131.651	-1910.069	606.932	392.509	-1899.127	609.404	193.910	-1906.998	547.809	389.910	-1908.740	553.427	201.574	-1984.753	164.458	374.208	-2041.167	164.324	78.051	-2051.900	191.435	336.158	-2044.120	158.865	158.647	-1963.117	1194.645	290.270	-1941.325	1198.137	184.779
	26	0.39167	-1969.708	769.005	242.276	-1986.589	766.119	297.090	-1952.826	771.890	187.461	-1944.195	413.229	328.792	-1995.750	426.736	199.899	-2127.277	123.044	314.705	-2053.108	66.907	207.369	-1938.722	842.340	254.959	-1956.588	843.296	364.628	-1920.857	841.383	145.290	-2120.226	867.441	255.535	-2109.393	865.127	207.097	-1934.162	420.343	388.367	-1982.309	413.037	140.602	-1916.056	413.142	265.869	-1991.823	418.463	253.821	-2140.570	130.026	349.068	-2059.077	66.919	171.361	-2120.348	114.562	282.763	-2058.136	68.889	240.681	-1949.259	1195.934	233.863	-1936.500	1094.586	231.009	-2060.691	1263.483	219.871	-2062.342	82.179	349.901	-1965.708	44.998	205.560	-1835.025	583.661	366.856	-1867.277	561.416	130.913	-1900.791	607.758	392.215	-1895.099	608.417	193.081	-1896.995	549.470	388.891	-1905.483	553.038	200.591	-1969.842	164.634	375.091	-2040.463	164.326	78.132	-2038.014	189.619	337.263	-2043.251	159.011	158.832	-1958.151	1194.675	290.194	-1936.101	1197.745	184.732
	27	0.40000	-1964.940	768.903	242.044	-1981.652	766.146	296.917	-1948.228	771.660	187.171	-1936.352	413.780	328.376	-1998.117	429.017	199.957	-2110.891	118.615	315.670	-2052.886	67.058	207.542	-1933.881	842.249	254.523	-1951.442	843.454	364.225	-1916.320	841.043	144.821	-2115.529	867.515	255.856	-2104.596	864.788	207.366	-1925.184	421.112	388.082	-1980.310	412.834	140.659	-1908.883	414.425	264.654	-1994.409	422.090	254.757	-2124.468	125.471	349.948	-2058.876	67.100	171.537	-2103.887	111.292	283.489	-2057.872	69.168	240.847	-1944.184	1195.760	233.886	-1931.422	1094.404	231.356	-2055.788	1263.358	219.659	-2044.663	80.623	351.036	-1965.666	44.949	205.625	-1828.103	585.557	365.972	-1864.318	560.614	130.264	-1894.111	608.214	392.086	-1890.505	608.046	191.900	-1889.907	550.280	388.384	-1903.175	552.273	200.144	-1954.858	164.880	376.153	-2039.749	164.312	78.233	-2023.739	187.890	338.920	-2042.495	159.211	158.924	-1953.083	1194.681	289.998	-1931.025	1197.415	184.976
	28	0.40833	-1960.171	768.796	241.835	-1976.738	766.172	296.758	-1943.604	771.421	186.912	-1927.535	413.657	328.066	-1997.570	429.463	199.957	-2094.287	114.295	316.628	-2052.692	67.219	207.716	-1929.055	842.152	254.108	-1946.326	843.609	363.848	-1911.785	840.696	144.369	-2110.830	867.562	256.239	-2099.853	864.454	207.732	-1916.342	421.885	387.824	-1978.339	412.610	140.690	-1900.471	414.999	264.036	-1992.844	423.032	255.759	-2108.166	121.011	350.812	-2058.688	67.285	171.712	-2086.724	106.889	284.568	-2057.690	69.481	241.007	-1939.151	1195.667	234.079	-1926.416	1094.302	231.781	-2050.897	1263.317	219.942	-2026.844	79.118	352.081	-1965.626	44.904	205.690	-1821.275	587.329	365.150	-1861.441	559.790	129.723	-1888.362	608.693	391.962	-1886.547	607.203	191.326	-1883.192	550.759	388.066	-1900.056	551.471	199.934	-1939.798	165.195	377.300	-2039.027	164.287	78.356	-2008.650	186.032	339.733	-2041.791	159.507	159.036	-1948.025	1194.721	289.971	-1926.020	1197.204	185.389
	29	0.41667	-1955.410	768.686	241.673	-1971.856	766.193	296.639	-1938.963	771.179	186.707	-1918.626	413.635	327.858	-1996.613	429.805	199.919	-2077.464	110.125	317.535	-2052.520	67.384	207.885	-1924.257	842.051	253.736	-1941.258	843.766	363.512	-1907.256	840.336	143.961	-2106.124	867.582	256.683	-2095.169	864.154	208.198	-1907.650	422.651	387.608	-1976.389	412.366	140.695	-1891.944	415.015	264.499	-1990.672	422.668	255.835	-2091.650	116.669	351.626	-2058.515	67.468	171.881	-2069.098	101.857	285.821	-2057.631	69.668	241.178	-1934.153	1195.588	234.197	-1921.432	1094.219	231.974	-2045.879	1263.249	219.942	-2008.889	77.673	352.996	-1965.597	44.878	205.781	-1814.545	588.997	364.411	-1858.615	558.937	129.293	-1882.048	609.502	391.543	-1882.663	605.927	191.262	-1876.042	551.463	387.859	-1896.834	550.099	199.782	-1924.670	165.600	378.435	-2038.304	164.252	78.499	-1993.254	184.399	339.717	-2041.209	159.621	159.228	-1942.913	1194.698	290.026	-1921.124	1197.074	185.563
